<svg width="56" height="12" viewBox="0 0 56 12" fill="none" xmlns="http://www.w3.org/2000/svg">
<path d="M4.91019 3.3541C5.25321 2.29837 6.74679 2.29837 7.08981 3.3541V3.3541C7.24322 3.82624 7.68319 4.1459 8.17963 4.1459V4.1459C9.28969 4.1459 9.75123 5.56637 8.85317 6.21885V6.21885C8.45155 6.51064 8.28349 7.02786 8.4369 7.5V7.5C8.77992 8.55573 7.5716 9.43363 6.67354 8.78115V8.78115C6.27192 8.48936 5.72808 8.48936 5.32646 8.78115V8.78115C4.4284 9.43363 3.22008 8.55573 3.5631 7.5V7.5C3.71651 7.02786 3.54845 6.51064 3.14683 6.21885V6.21885C2.24877 5.56637 2.71031 4.1459 3.82037 4.1459V4.1459C4.31681 4.1459 4.75678 3.82624 4.91019 3.3541V3.3541Z" fill="#FFD145"/>
<path d="M15.9102 3.3541C16.2532 2.29837 17.7468 2.29837 18.0898 3.3541V3.3541C18.2432 3.82624 18.6832 4.1459 19.1796 4.1459V4.1459C20.2897 4.1459 20.7512 5.56637 19.8532 6.21885V6.21885C19.4515 6.51064 19.2835 7.02786 19.4369 7.5V7.5C19.7799 8.55573 18.5716 9.43363 17.6735 8.78115V8.78115C17.2719 8.48936 16.7281 8.48936 16.3265 8.78115V8.78115C15.4284 9.43363 14.2201 8.55573 14.5631 7.5V7.5C14.7165 7.02786 14.5485 6.51064 14.1468 6.21885V6.21885C13.2488 5.56637 13.7103 4.1459 14.8204 4.1459V4.1459C15.3168 4.1459 15.7568 3.82624 15.9102 3.3541V3.3541Z" fill="#FFD145"/>
<path d="M26.9102 3.3541C27.2532 2.29837 28.7468 2.29837 29.0898 3.3541V3.3541C29.2432 3.82624 29.6832 4.1459 30.1796 4.1459V4.1459C31.2897 4.1459 31.7512 5.56637 30.8532 6.21885V6.21885C30.4515 6.51064 30.2835 7.02786 30.4369 7.5V7.5C30.7799 8.55573 29.5716 9.43363 28.6735 8.78115V8.78115C28.2719 8.48936 27.7281 8.48936 27.3265 8.78115V8.78115C26.4284 9.43363 25.2201 8.55573 25.5631 7.5V7.5C25.7165 7.02786 25.5485 6.51064 25.1468 6.21885V6.21885C24.2488 5.56637 24.7103 4.1459 25.8204 4.1459V4.1459C26.3168 4.1459 26.7568 3.82624 26.9102 3.3541V3.3541Z" fill="#FFD145"/>
<path d="M37.9102 3.3541C38.2532 2.29837 39.7468 2.29837 40.0898 3.3541V3.3541C40.2432 3.82624 40.6832 4.1459 41.1796 4.1459V4.1459C42.2897 4.1459 42.7512 5.56637 41.8532 6.21885V6.21885C41.4515 6.51064 41.2835 7.02786 41.4369 7.5V7.5C41.7799 8.55573 40.5716 9.43363 39.6735 8.78115V8.78115C39.2719 8.48936 38.7281 8.48936 38.3265 8.78115V8.78115C37.4284 9.43363 36.2201 8.55573 36.5631 7.5V7.5C36.7165 7.02786 36.5485 6.51064 36.1468 6.21885V6.21885C35.2488 5.56637 35.7103 4.1459 36.8204 4.1459V4.1459C37.3168 4.1459 37.7568 3.82624 37.9102 3.3541V3.3541Z" fill="#FFD145"/>
<path d="M48.9102 3.3541C49.2532 2.29837 50.7468 2.29837 51.0898 3.3541V3.3541C51.2432 3.82624 51.6832 4.1459 52.1796 4.1459V4.1459C53.2897 4.1459 53.7512 5.56637 52.8532 6.21885V6.21885C52.4515 6.51064 52.2835 7.02786 52.4369 7.5V7.5C52.7799 8.55573 51.5716 9.43363 50.6735 8.78115V8.78115C50.2719 8.48936 49.7281 8.48936 49.3265 8.78115V8.78115C48.4284 9.43363 47.2201 8.55573 47.5631 7.5V7.5C47.7165 7.02786 47.5485 6.51064 47.1468 6.21885V6.21885C46.2488 5.56637 46.7103 4.1459 47.8204 4.1459V4.1459C48.3168 4.1459 48.7568 3.82624 48.9102 3.3541V3.3541Z" fill="#FFD145"/>
</svg>
